<mxfile host="app.diagrams.net" modified="2024-03-18T18:48:44.843Z" agent="Mozilla/5.0 (Windows NT 10.0; Win64; x64) AppleWebKit/537.36 (KHTML, like Gecko) Chrome/122.0.0.0 Safari/537.36" etag="iFFDHuV9_hjpWsAL5ipD" version="24.0.0" type="github">
  <diagram name="Page-1" id="55a83fd1-7818-8e21-69c5-c3457e3827bb">
    <mxGraphModel dx="1750" dy="1005" grid="1" gridSize="10" guides="1" tooltips="1" connect="1" arrows="1" fold="1" page="1" pageScale="1" pageWidth="1100" pageHeight="850" background="none" math="0" shadow="0">
      <root>
        <mxCell id="0" />
        <mxCell id="1" parent="0" />
        <mxCell id="69ecfefc5c41e42c-2" value="Internet" style="image;html=1;labelBackgroundColor=#ffffff;image=img/lib/clip_art/networking/Cloud_128x128.png;rounded=1;shadow=0;comic=0;strokeWidth=2;fontSize=22;labelPosition=center;verticalLabelPosition=top;align=center;verticalAlign=bottom;" parent="1" vertex="1">
          <mxGeometry x="530" y="150" width="80" height="80" as="geometry" />
        </mxCell>
        <mxCell id="69ecfefc5c41e42c-19" style="edgeStyle=none;rounded=0;html=1;labelBackgroundColor=none;endArrow=none;strokeWidth=2;fontFamily=Verdana;fontSize=22" parent="1" source="69ecfefc5c41e42c-3" target="69ecfefc5c41e42c-2" edge="1">
          <mxGeometry relative="1" as="geometry" />
        </mxCell>
        <mxCell id="69ecfefc5c41e42c-3" value="Firewall Loja Carpina" style="image;html=1;labelBackgroundColor=#ffffff;image=img/lib/clip_art/networking/Firewall_128x128.png;rounded=1;shadow=0;comic=0;strokeWidth=2;fontSize=22;labelPosition=right;verticalLabelPosition=middle;align=left;verticalAlign=middle;" parent="1" vertex="1">
          <mxGeometry x="450" y="300" width="80" height="80" as="geometry" />
        </mxCell>
        <mxCell id="_x4T0MNHFkzk_e-Ybhdq-4" value="" style="shape=mxgraph.signs.tech.telephone_4;html=1;pointerEvents=1;fillColor=#000000;strokeColor=none;verticalLabelPosition=bottom;verticalAlign=top;align=center;" vertex="1" parent="1">
          <mxGeometry x="90" y="696" width="71" height="99" as="geometry" />
        </mxCell>
        <mxCell id="_x4T0MNHFkzk_e-Ybhdq-10" value="" style="image;html=1;image=img/lib/clip_art/networking/Switch_128x128.png" vertex="1" parent="1">
          <mxGeometry x="440" y="455" width="80" height="80" as="geometry" />
        </mxCell>
        <mxCell id="_x4T0MNHFkzk_e-Ybhdq-11" style="edgeStyle=none;rounded=0;html=1;labelBackgroundColor=none;endArrow=none;strokeWidth=2;fontFamily=Verdana;fontSize=22;exitX=0.5;exitY=0;exitDx=0;exitDy=0;entryX=0.75;entryY=1;entryDx=0;entryDy=0;" edge="1" parent="1" source="_x4T0MNHFkzk_e-Ybhdq-10" target="69ecfefc5c41e42c-3">
          <mxGeometry relative="1" as="geometry">
            <mxPoint x="432" y="560" as="sourcePoint" />
            <mxPoint x="500" y="470" as="targetPoint" />
          </mxGeometry>
        </mxCell>
        <mxCell id="_x4T0MNHFkzk_e-Ybhdq-15" value="&lt;b&gt;Port 2&lt;/b&gt;&lt;br&gt;172.100.1.254/24" style="text;html=1;align=center;verticalAlign=middle;whiteSpace=wrap;rounded=0;" vertex="1" parent="1">
          <mxGeometry x="300" y="350" width="130" height="30" as="geometry" />
        </mxCell>
        <mxCell id="_x4T0MNHFkzk_e-Ybhdq-17" value="" style="image;html=1;image=img/lib/clip_art/networking/Switch_128x128.png" vertex="1" parent="1">
          <mxGeometry x="440" y="570" width="80" height="80" as="geometry" />
        </mxCell>
        <mxCell id="_x4T0MNHFkzk_e-Ybhdq-19" style="edgeStyle=none;rounded=0;html=1;labelBackgroundColor=none;endArrow=none;strokeWidth=2;fontFamily=Verdana;fontSize=22;entryX=1;entryY=0.75;entryDx=0;entryDy=0;exitX=0.5;exitY=0;exitDx=0;exitDy=0;" edge="1" parent="1" source="_x4T0MNHFkzk_e-Ybhdq-44" target="_x4T0MNHFkzk_e-Ybhdq-20">
          <mxGeometry relative="1" as="geometry">
            <mxPoint x="270" y="240" as="sourcePoint" />
            <mxPoint x="305" y="370" as="targetPoint" />
          </mxGeometry>
        </mxCell>
        <mxCell id="_x4T0MNHFkzk_e-Ybhdq-20" value="Firewall" style="image;html=1;labelBackgroundColor=#ffffff;image=img/lib/clip_art/networking/Firewall_128x128.png;rounded=1;shadow=0;comic=0;strokeWidth=2;fontSize=22;labelPosition=right;verticalLabelPosition=middle;align=left;verticalAlign=middle;" vertex="1" parent="1">
          <mxGeometry x="161" y="140" width="80" height="80" as="geometry" />
        </mxCell>
        <mxCell id="_x4T0MNHFkzk_e-Ybhdq-21" value="&lt;b&gt;LAN 1&lt;br&gt;&lt;/b&gt;192.168.1.254/24" style="text;html=1;align=center;verticalAlign=middle;whiteSpace=wrap;rounded=0;" vertex="1" parent="1">
          <mxGeometry x="500" y="370" width="120" height="30" as="geometry" />
        </mxCell>
        <mxCell id="_x4T0MNHFkzk_e-Ybhdq-22" value="" style="sketch=0;pointerEvents=1;shadow=0;dashed=0;html=1;strokeColor=none;fillColor=#505050;labelPosition=center;verticalLabelPosition=bottom;verticalAlign=top;outlineConnect=0;align=center;shape=mxgraph.office.devices.workstation_pc;" vertex="1" parent="1">
          <mxGeometry x="600" y="535" width="53" height="59" as="geometry" />
        </mxCell>
        <mxCell id="_x4T0MNHFkzk_e-Ybhdq-27" value="" style="image;html=1;image=img/lib/clip_art/networking/Switch_128x128.png" vertex="1" parent="1">
          <mxGeometry x="125" y="420" width="80" height="80" as="geometry" />
        </mxCell>
        <mxCell id="_x4T0MNHFkzk_e-Ybhdq-30" style="edgeStyle=none;rounded=0;html=1;labelBackgroundColor=none;endArrow=none;strokeWidth=2;fontFamily=Verdana;fontSize=22;exitX=0.5;exitY=0;exitDx=0;exitDy=0;entryX=0.5;entryY=1;entryDx=0;entryDy=0;" edge="1" parent="1" source="_x4T0MNHFkzk_e-Ybhdq-17" target="_x4T0MNHFkzk_e-Ybhdq-10">
          <mxGeometry relative="1" as="geometry">
            <mxPoint x="460" y="635" as="sourcePoint" />
            <mxPoint x="460" y="535" as="targetPoint" />
          </mxGeometry>
        </mxCell>
        <mxCell id="_x4T0MNHFkzk_e-Ybhdq-31" style="edgeStyle=none;rounded=0;html=1;labelBackgroundColor=none;endArrow=none;strokeWidth=2;fontFamily=Verdana;fontSize=22;entryX=0;entryY=1;entryDx=0;entryDy=0;exitX=1;exitY=0;exitDx=0;exitDy=0;" edge="1" parent="1" source="_x4T0MNHFkzk_e-Ybhdq-27" target="69ecfefc5c41e42c-3">
          <mxGeometry relative="1" as="geometry">
            <mxPoint x="380" y="535" as="sourcePoint" />
            <mxPoint x="380" y="435" as="targetPoint" />
            <Array as="points" />
          </mxGeometry>
        </mxCell>
        <mxCell id="_x4T0MNHFkzk_e-Ybhdq-33" style="edgeStyle=none;rounded=0;html=1;labelBackgroundColor=none;endArrow=none;strokeWidth=2;fontFamily=Verdana;fontSize=22;exitX=0.835;exitY=0;exitDx=0;exitDy=0;entryX=0;entryY=1;entryDx=0;entryDy=0;exitPerimeter=0;" edge="1" parent="1" source="_x4T0MNHFkzk_e-Ybhdq-4" target="_x4T0MNHFkzk_e-Ybhdq-27">
          <mxGeometry relative="1" as="geometry">
            <mxPoint x="200" y="690" as="sourcePoint" />
            <mxPoint x="200" y="590" as="targetPoint" />
          </mxGeometry>
        </mxCell>
        <mxCell id="_x4T0MNHFkzk_e-Ybhdq-34" value="PDV&lt;br&gt;192.168.1.201" style="text;html=1;align=center;verticalAlign=middle;whiteSpace=wrap;rounded=0;" vertex="1" parent="1">
          <mxGeometry x="220" y="810" width="60" height="30" as="geometry" />
        </mxCell>
        <mxCell id="_x4T0MNHFkzk_e-Ybhdq-35" value="Ramal TelefÃ´nico&lt;br&gt;172.100.1.1" style="text;html=1;align=center;verticalAlign=middle;whiteSpace=wrap;rounded=0;" vertex="1" parent="1">
          <mxGeometry x="70" y="810" width="60" height="30" as="geometry" />
        </mxCell>
        <mxCell id="_x4T0MNHFkzk_e-Ybhdq-36" value="" style="fontColor=#0066CC;verticalAlign=top;verticalLabelPosition=bottom;labelPosition=center;align=center;html=1;outlineConnect=0;fillColor=#CCCCCC;strokeColor=#6881B3;gradientColor=none;gradientDirection=north;strokeWidth=2;shape=mxgraph.networks.virtual_pc;" vertex="1" parent="1">
          <mxGeometry x="192.5" y="725" width="115" height="85" as="geometry" />
        </mxCell>
        <mxCell id="_x4T0MNHFkzk_e-Ybhdq-37" style="edgeStyle=none;rounded=0;html=1;labelBackgroundColor=none;endArrow=none;strokeWidth=2;fontFamily=Verdana;fontSize=22;exitX=0.99;exitY=0.01;exitDx=0;exitDy=0;exitPerimeter=0;entryX=0;entryY=0.5;entryDx=0;entryDy=0;" edge="1" parent="1" source="_x4T0MNHFkzk_e-Ybhdq-36" target="_x4T0MNHFkzk_e-Ybhdq-17">
          <mxGeometry relative="1" as="geometry">
            <mxPoint x="680" y="760" as="sourcePoint" />
            <mxPoint x="570" y="700" as="targetPoint" />
            <Array as="points" />
          </mxGeometry>
        </mxCell>
        <mxCell id="_x4T0MNHFkzk_e-Ybhdq-40" style="edgeStyle=none;rounded=0;html=1;labelBackgroundColor=none;endArrow=none;strokeWidth=2;fontFamily=Verdana;fontSize=22;entryX=1;entryY=0.5;entryDx=0;entryDy=0;" edge="1" parent="1" source="_x4T0MNHFkzk_e-Ybhdq-22" target="_x4T0MNHFkzk_e-Ybhdq-10">
          <mxGeometry relative="1" as="geometry">
            <mxPoint x="570" y="700" as="sourcePoint" />
            <mxPoint x="570" y="600" as="targetPoint" />
          </mxGeometry>
        </mxCell>
        <mxCell id="_x4T0MNHFkzk_e-Ybhdq-41" value="" style="image;html=1;image=img/lib/clip_art/networking/Wireless_Router_128x128.png" vertex="1" parent="1">
          <mxGeometry x="610" y="420" width="80" height="80" as="geometry" />
        </mxCell>
        <mxCell id="_x4T0MNHFkzk_e-Ybhdq-42" style="edgeStyle=none;rounded=0;html=1;labelBackgroundColor=none;endArrow=none;strokeWidth=2;fontFamily=Verdana;fontSize=22;exitX=1;exitY=0.25;exitDx=0;exitDy=0;entryX=0;entryY=1;entryDx=0;entryDy=0;" edge="1" parent="1" source="_x4T0MNHFkzk_e-Ybhdq-10" target="_x4T0MNHFkzk_e-Ybhdq-41">
          <mxGeometry relative="1" as="geometry">
            <mxPoint x="640" y="520" as="sourcePoint" />
            <mxPoint x="640" y="420" as="targetPoint" />
          </mxGeometry>
        </mxCell>
        <mxCell id="_x4T0MNHFkzk_e-Ybhdq-43" value="" style="sketch=0;pointerEvents=1;shadow=0;dashed=0;html=1;strokeColor=none;fillColor=#434445;aspect=fixed;labelPosition=center;verticalLabelPosition=bottom;verticalAlign=top;align=center;outlineConnect=0;shape=mxgraph.vvd.wi_fi;" vertex="1" parent="1">
          <mxGeometry x="690" y="390" width="50" height="50" as="geometry" />
        </mxCell>
        <mxCell id="_x4T0MNHFkzk_e-Ybhdq-45" value="" style="edgeStyle=none;rounded=0;html=1;labelBackgroundColor=none;endArrow=none;strokeWidth=2;fontFamily=Verdana;fontSize=22;entryX=0.5;entryY=0;entryDx=0;entryDy=0;exitX=0;exitY=0;exitDx=0;exitDy=0;" edge="1" parent="1" source="69ecfefc5c41e42c-3" target="_x4T0MNHFkzk_e-Ybhdq-44">
          <mxGeometry relative="1" as="geometry">
            <mxPoint x="450" y="300" as="sourcePoint" />
            <mxPoint x="241" y="230" as="targetPoint" />
            <Array as="points" />
          </mxGeometry>
        </mxCell>
        <mxCell id="_x4T0MNHFkzk_e-Ybhdq-44" value="&lt;b&gt;VPN&lt;/b&gt;" style="text;html=1;align=center;verticalAlign=middle;whiteSpace=wrap;rounded=0;" vertex="1" parent="1">
          <mxGeometry x="270" y="240" width="130" height="30" as="geometry" />
        </mxCell>
        <mxCell id="_x4T0MNHFkzk_e-Ybhdq-46" value="&lt;b&gt;CSC&lt;br&gt;&lt;br&gt;&lt;/b&gt;" style="text;html=1;align=center;verticalAlign=middle;whiteSpace=wrap;rounded=0;" vertex="1" parent="1">
          <mxGeometry x="100" y="230" width="130" height="30" as="geometry" />
        </mxCell>
        <mxCell id="_x4T0MNHFkzk_e-Ybhdq-47" value="Internet" style="image;html=1;labelBackgroundColor=#ffffff;image=img/lib/clip_art/networking/Cloud_128x128.png;rounded=1;shadow=0;comic=0;strokeWidth=2;fontSize=22;labelPosition=center;verticalLabelPosition=top;align=center;verticalAlign=bottom;" vertex="1" parent="1">
          <mxGeometry x="1540" y="169" width="80" height="80" as="geometry" />
        </mxCell>
        <mxCell id="_x4T0MNHFkzk_e-Ybhdq-48" style="edgeStyle=none;rounded=0;html=1;labelBackgroundColor=none;endArrow=none;strokeWidth=2;fontFamily=Verdana;fontSize=22" edge="1" parent="1" source="_x4T0MNHFkzk_e-Ybhdq-49" target="_x4T0MNHFkzk_e-Ybhdq-47">
          <mxGeometry relative="1" as="geometry" />
        </mxCell>
        <mxCell id="_x4T0MNHFkzk_e-Ybhdq-49" value="Firewall Loja Bongi" style="image;html=1;labelBackgroundColor=#ffffff;image=img/lib/clip_art/networking/Firewall_128x128.png;rounded=1;shadow=0;comic=0;strokeWidth=2;fontSize=22;labelPosition=right;verticalLabelPosition=middle;align=left;verticalAlign=middle;" vertex="1" parent="1">
          <mxGeometry x="1530" y="329" width="80" height="80" as="geometry" />
        </mxCell>
        <mxCell id="_x4T0MNHFkzk_e-Ybhdq-50" value="" style="image;html=1;image=img/lib/clip_art/networking/Switch_128x128.png" vertex="1" parent="1">
          <mxGeometry x="1530" y="484" width="80" height="80" as="geometry" />
        </mxCell>
        <mxCell id="_x4T0MNHFkzk_e-Ybhdq-51" style="edgeStyle=none;rounded=0;html=1;labelBackgroundColor=none;endArrow=none;strokeWidth=2;fontFamily=Verdana;fontSize=22;exitX=0.5;exitY=0;exitDx=0;exitDy=0;" edge="1" parent="1" source="_x4T0MNHFkzk_e-Ybhdq-50" target="_x4T0MNHFkzk_e-Ybhdq-49">
          <mxGeometry relative="1" as="geometry">
            <mxPoint x="1512" y="589" as="sourcePoint" />
            <mxPoint x="1600" y="410" as="targetPoint" />
            <Array as="points" />
          </mxGeometry>
        </mxCell>
        <mxCell id="_x4T0MNHFkzk_e-Ybhdq-52" value="&lt;b&gt;Port 2&lt;/b&gt;&lt;br&gt;172.100.5.254/24" style="text;html=1;align=center;verticalAlign=middle;whiteSpace=wrap;rounded=0;" vertex="1" parent="1">
          <mxGeometry x="1410" y="425" width="130" height="30" as="geometry" />
        </mxCell>
        <mxCell id="_x4T0MNHFkzk_e-Ybhdq-53" value="" style="image;html=1;image=img/lib/clip_art/networking/Switch_128x128.png" vertex="1" parent="1">
          <mxGeometry x="1520" y="599" width="80" height="80" as="geometry" />
        </mxCell>
        <mxCell id="_x4T0MNHFkzk_e-Ybhdq-54" style="edgeStyle=none;rounded=0;html=1;labelBackgroundColor=none;endArrow=none;strokeWidth=2;fontFamily=Verdana;fontSize=22;entryX=1;entryY=0.75;entryDx=0;entryDy=0;exitX=0.5;exitY=0;exitDx=0;exitDy=0;" edge="1" parent="1" source="_x4T0MNHFkzk_e-Ybhdq-68" target="_x4T0MNHFkzk_e-Ybhdq-55">
          <mxGeometry relative="1" as="geometry">
            <mxPoint x="1350" y="269" as="sourcePoint" />
            <mxPoint x="1385" y="399" as="targetPoint" />
          </mxGeometry>
        </mxCell>
        <mxCell id="_x4T0MNHFkzk_e-Ybhdq-55" value="Firewall" style="image;html=1;labelBackgroundColor=#ffffff;image=img/lib/clip_art/networking/Firewall_128x128.png;rounded=1;shadow=0;comic=0;strokeWidth=2;fontSize=22;labelPosition=right;verticalLabelPosition=middle;align=left;verticalAlign=middle;" vertex="1" parent="1">
          <mxGeometry x="1241" y="169" width="80" height="80" as="geometry" />
        </mxCell>
        <mxCell id="_x4T0MNHFkzk_e-Ybhdq-56" value="&lt;b&gt;LAN 1&lt;br&gt;&lt;/b&gt;192.168.5.254/24" style="text;html=1;align=center;verticalAlign=middle;whiteSpace=wrap;rounded=0;" vertex="1" parent="1">
          <mxGeometry x="1560" y="410" width="120" height="30" as="geometry" />
        </mxCell>
        <mxCell id="_x4T0MNHFkzk_e-Ybhdq-57" value="" style="sketch=0;pointerEvents=1;shadow=0;dashed=0;html=1;strokeColor=none;fillColor=#505050;labelPosition=center;verticalLabelPosition=bottom;verticalAlign=top;outlineConnect=0;align=center;shape=mxgraph.office.devices.workstation_pc;" vertex="1" parent="1">
          <mxGeometry x="1719" y="541" width="53" height="59" as="geometry" />
        </mxCell>
        <mxCell id="_x4T0MNHFkzk_e-Ybhdq-59" style="edgeStyle=none;rounded=0;html=1;labelBackgroundColor=none;endArrow=none;strokeWidth=2;fontFamily=Verdana;fontSize=22;exitX=0.5;exitY=0;exitDx=0;exitDy=0;entryX=0.5;entryY=1;entryDx=0;entryDy=0;" edge="1" parent="1" source="_x4T0MNHFkzk_e-Ybhdq-53" target="_x4T0MNHFkzk_e-Ybhdq-50">
          <mxGeometry relative="1" as="geometry">
            <mxPoint x="1540" y="664" as="sourcePoint" />
            <mxPoint x="1540" y="564" as="targetPoint" />
          </mxGeometry>
        </mxCell>
        <mxCell id="_x4T0MNHFkzk_e-Ybhdq-63" style="edgeStyle=none;rounded=0;html=1;labelBackgroundColor=none;endArrow=none;strokeWidth=2;fontFamily=Verdana;fontSize=22;entryX=1;entryY=0.5;entryDx=0;entryDy=0;" edge="1" parent="1" source="_x4T0MNHFkzk_e-Ybhdq-57" target="_x4T0MNHFkzk_e-Ybhdq-50">
          <mxGeometry relative="1" as="geometry">
            <mxPoint x="1650" y="729" as="sourcePoint" />
            <mxPoint x="1650" y="629" as="targetPoint" />
          </mxGeometry>
        </mxCell>
        <mxCell id="_x4T0MNHFkzk_e-Ybhdq-64" value="" style="image;html=1;image=img/lib/clip_art/networking/Wireless_Router_128x128.png" vertex="1" parent="1">
          <mxGeometry x="1692" y="440" width="80" height="80" as="geometry" />
        </mxCell>
        <mxCell id="_x4T0MNHFkzk_e-Ybhdq-65" style="edgeStyle=none;rounded=0;html=1;labelBackgroundColor=none;endArrow=none;strokeWidth=2;fontFamily=Verdana;fontSize=22;exitX=1;exitY=0.25;exitDx=0;exitDy=0;entryX=0;entryY=1;entryDx=0;entryDy=0;" edge="1" parent="1" source="_x4T0MNHFkzk_e-Ybhdq-50" target="_x4T0MNHFkzk_e-Ybhdq-64">
          <mxGeometry relative="1" as="geometry">
            <mxPoint x="1720" y="549" as="sourcePoint" />
            <mxPoint x="1720" y="449" as="targetPoint" />
          </mxGeometry>
        </mxCell>
        <mxCell id="_x4T0MNHFkzk_e-Ybhdq-66" value="" style="sketch=0;pointerEvents=1;shadow=0;dashed=0;html=1;strokeColor=none;fillColor=#434445;aspect=fixed;labelPosition=center;verticalLabelPosition=bottom;verticalAlign=top;align=center;outlineConnect=0;shape=mxgraph.vvd.wi_fi;" vertex="1" parent="1">
          <mxGeometry x="1770" y="419" width="50" height="50" as="geometry" />
        </mxCell>
        <mxCell id="_x4T0MNHFkzk_e-Ybhdq-67" value="" style="edgeStyle=none;rounded=0;html=1;labelBackgroundColor=none;endArrow=none;strokeWidth=2;fontFamily=Verdana;fontSize=22;entryX=0.5;entryY=0;entryDx=0;entryDy=0;exitX=0;exitY=0;exitDx=0;exitDy=0;" edge="1" parent="1" source="_x4T0MNHFkzk_e-Ybhdq-49" target="_x4T0MNHFkzk_e-Ybhdq-68">
          <mxGeometry relative="1" as="geometry">
            <mxPoint x="1530" y="329" as="sourcePoint" />
            <mxPoint x="1321" y="259" as="targetPoint" />
            <Array as="points" />
          </mxGeometry>
        </mxCell>
        <mxCell id="_x4T0MNHFkzk_e-Ybhdq-68" value="&lt;b&gt;VPN&lt;/b&gt;" style="text;html=1;align=center;verticalAlign=middle;whiteSpace=wrap;rounded=0;" vertex="1" parent="1">
          <mxGeometry x="1350" y="269" width="130" height="30" as="geometry" />
        </mxCell>
        <mxCell id="_x4T0MNHFkzk_e-Ybhdq-69" value="&lt;b&gt;CSC&lt;br&gt;&lt;br&gt;&lt;/b&gt;" style="text;html=1;align=center;verticalAlign=middle;whiteSpace=wrap;rounded=0;" vertex="1" parent="1">
          <mxGeometry x="1180" y="259" width="130" height="30" as="geometry" />
        </mxCell>
        <mxCell id="_x4T0MNHFkzk_e-Ybhdq-70" value="" style="shape=mxgraph.signs.tech.telephone_4;html=1;pointerEvents=1;fillColor=#000000;strokeColor=none;verticalLabelPosition=bottom;verticalAlign=top;align=center;" vertex="1" parent="1">
          <mxGeometry x="1710" y="700" width="71" height="99" as="geometry" />
        </mxCell>
        <mxCell id="_x4T0MNHFkzk_e-Ybhdq-71" value="" style="fontColor=#0066CC;verticalAlign=top;verticalLabelPosition=bottom;labelPosition=center;align=center;html=1;outlineConnect=0;fillColor=#CCCCCC;strokeColor=#6881B3;gradientColor=none;gradientDirection=north;strokeWidth=2;shape=mxgraph.networks.virtual_pc;" vertex="1" parent="1">
          <mxGeometry x="1820" y="714" width="115" height="85" as="geometry" />
        </mxCell>
        <mxCell id="_x4T0MNHFkzk_e-Ybhdq-72" style="edgeStyle=none;rounded=0;html=1;labelBackgroundColor=none;endArrow=none;strokeWidth=2;fontFamily=Verdana;fontSize=22;entryX=0.5;entryY=1;entryDx=0;entryDy=0;exitX=0;exitY=0.58;exitDx=0;exitDy=0;exitPerimeter=0;" edge="1" parent="1" source="_x4T0MNHFkzk_e-Ybhdq-70" target="_x4T0MNHFkzk_e-Ybhdq-53">
          <mxGeometry relative="1" as="geometry">
            <mxPoint x="1660" y="752" as="sourcePoint" />
            <mxPoint x="1580" y="700" as="targetPoint" />
          </mxGeometry>
        </mxCell>
        <mxCell id="_x4T0MNHFkzk_e-Ybhdq-73" style="edgeStyle=none;rounded=0;html=1;labelBackgroundColor=none;endArrow=none;strokeWidth=2;fontFamily=Verdana;fontSize=22;exitX=0;exitY=0.5;exitDx=0;exitDy=0;exitPerimeter=0;" edge="1" parent="1" source="_x4T0MNHFkzk_e-Ybhdq-71" target="_x4T0MNHFkzk_e-Ybhdq-70">
          <mxGeometry relative="1" as="geometry">
            <mxPoint x="1870" y="714" as="sourcePoint" />
            <mxPoint x="1790" y="662" as="targetPoint" />
          </mxGeometry>
        </mxCell>
        <mxCell id="_x4T0MNHFkzk_e-Ybhdq-75" style="edgeStyle=none;rounded=0;html=1;labelBackgroundColor=none;endArrow=none;strokeWidth=2;fontFamily=Verdana;fontSize=22;entryX=0;entryY=0.25;entryDx=0;entryDy=0;exitX=0.25;exitY=1;exitDx=0;exitDy=0;" edge="1" parent="1" source="_x4T0MNHFkzk_e-Ybhdq-49" target="_x4T0MNHFkzk_e-Ybhdq-50">
          <mxGeometry relative="1" as="geometry">
            <mxPoint x="1471" y="578" as="sourcePoint" />
            <mxPoint x="1321" y="500" as="targetPoint" />
          </mxGeometry>
        </mxCell>
        <mxCell id="_x4T0MNHFkzk_e-Ybhdq-76" value="Ramal TelefÃ´nico&lt;br&gt;172.100.5.1" style="text;html=1;align=center;verticalAlign=middle;whiteSpace=wrap;rounded=0;" vertex="1" parent="1">
          <mxGeometry x="1670" y="799" width="60" height="30" as="geometry" />
        </mxCell>
        <mxCell id="_x4T0MNHFkzk_e-Ybhdq-77" value="PDV&lt;br&gt;192.168.5.201" style="text;html=1;align=center;verticalAlign=middle;whiteSpace=wrap;rounded=0;" vertex="1" parent="1">
          <mxGeometry x="1860" y="799" width="60" height="30" as="geometry" />
        </mxCell>
        <mxCell id="_x4T0MNHFkzk_e-Ybhdq-78" value="&lt;span style=&quot;font-size: 28px;&quot;&gt;&lt;b&gt;CenÃ¡rios de lojas novas&lt;/b&gt;&lt;/span&gt;" style="text;html=1;align=center;verticalAlign=middle;whiteSpace=wrap;rounded=0;" vertex="1" parent="1">
          <mxGeometry x="215" y="40" width="365" height="30" as="geometry" />
        </mxCell>
        <mxCell id="_x4T0MNHFkzk_e-Ybhdq-79" value="&lt;span style=&quot;font-size: 28px;&quot;&gt;&lt;b&gt;CenÃ¡rios de lojas Antigas&lt;/b&gt;&lt;/span&gt;" style="text;html=1;align=center;verticalAlign=middle;whiteSpace=wrap;rounded=0;" vertex="1" parent="1">
          <mxGeometry x="1360" y="30" width="370" height="30" as="geometry" />
        </mxCell>
        <mxCell id="_x4T0MNHFkzk_e-Ybhdq-80" value="NÃ£o apresenta nenhum problema" style="text;html=1;align=center;verticalAlign=middle;whiteSpace=wrap;rounded=0;" vertex="1" parent="1">
          <mxGeometry x="297.5" y="80" width="102.5" height="30" as="geometry" />
        </mxCell>
      </root>
    </mxGraphModel>
  </diagram>
</mxfile>
